<svg xmlns:xlink="http://www.w3.org/1999/xlink"   fill="none" xmlns="http://www.w3.org/2000/svg" viewBox="0 0 32 32" class="sc-bdnxRM jvCTkj" width="48"  height="48" ><path fill-rule="evenodd" clip-rule="evenodd" d="M13.196 26h1.036l6.003-9.004 5.168.083c.293-.003.566-.105.774-.309.208-.205.323-.478.323-.77 0-.292-.115-.565-.323-.77a1.038 1.038 0 00-.774-.309l-5.168.083L14.232 6h-1.036l3.024 8.973-6.987.028-2-3.001H6.193l1.333 4-1.333 4h1.038l2.001-3.001 6.987.028L13.196 26zm1.571 1h-2.964l3.026-8.979-5.062-.02-2 2.999h-2.96l1.666-5-1.667-5h2.961l2 2.999 5.062-.02L11.803 5h2.964l5.997 8.996 4.622-.075c.593.007 1.091.202 1.492.597.401.393.622.92.622 1.482a2.06 2.06 0 01-.622 1.482 2.112 2.112 0 01-1.492.597l-4.622-.075L14.767 27z" fill="currentColor"></path></svg>